<?xml version="1.0" encoding="UTF-8" standalone="no"?>
<svg
   viewBox="0 0 22.633368 23.220131"
   version="1.1"
   id="svg65"
   sodipodi:docname="voronoi.svg"
   inkscape:version="1.1.2 (0a00cf5339, 2022-02-04)"
   width="22.633368"
   height="23.220131"
   xmlns:inkscape="http://www.inkscape.org/namespaces/inkscape"
   xmlns:sodipodi="http://sodipodi.sourceforge.net/DTD/sodipodi-0.dtd"
   xmlns="http://www.w3.org/2000/svg"
   xmlns:svg="http://www.w3.org/2000/svg">
  <defs
     id="defs69" />
  <sodipodi:namedview
     id="namedview67"
     pagecolor="#ffffff"
     bordercolor="#666666"
     borderopacity="1.0"
     inkscape:pageshadow="2"
     inkscape:pageopacity="0.0"
     inkscape:pagecheckerboard="0"
     showgrid="false"
     inkscape:zoom="7.8726727"
     inkscape:cx="5.7159749"
     inkscape:cy="-5.7159749"
     inkscape:window-width="1920"
     inkscape:window-height="979"
     inkscape:window-x="1920"
     inkscape:window-y="32"
     inkscape:window-maximized="1"
     inkscape:current-layer="voronoi"
     fit-margin-top="0"
     fit-margin-left="0"
     fit-margin-right="0"
     fit-margin-bottom="0" />
  <!-- svg generated using QGIS www.qgis.org -->
  <g
     id="voronoi"
     inkscape:groupmode="layer"
     inkscape:label="voronoi"
     transform="translate(-307.52832,-41.967987)">
    <g
       id="voronoi_1"
       inkscape:label="1"
       style="fill:#98ffb9;fill-opacity:1;stroke:#000000;stroke-width:8.18065;stroke-linejoin:round;stroke-miterlimit:4;stroke-dasharray:none;stroke-opacity:1"
       transform="matrix(0.08699097,0,0,0.17177111,281.09092,35.284429)">
      <path
         d="m 308,170 v -31 l 46,-1 31,32 h -77"
         id="path2"
         style="fill:#98ffb9;fill-opacity:1;stroke:#000000;stroke-width:8.18065;stroke-miterlimit:4;stroke-dasharray:none;stroke-opacity:1" />
    </g>
    <g
       id="voronoi_2"
       inkscape:label="2"
       style="fill:#ffffff;fill-opacity:1;stroke:#000000;stroke-width:8.18065;stroke-linejoin:round;stroke-miterlimit:4;stroke-dasharray:none;stroke-opacity:1"
       transform="matrix(0.08699097,0,0,0.17177111,281.09092,35.284429)">
      <path
         d="m 393,170 11,-32 46,-27 28,-2 12,17 -1,44 h -96"
         id="path5"
         style="fill:#98ffb9;fill-opacity:1;stroke:#000000;stroke-width:8.18065;stroke-miterlimit:4;stroke-dasharray:none;stroke-opacity:1" />
    </g>
    <g
       id="voronoi_3"
       inkscape:label="3"
       style="fill:#98ffb9;fill-opacity:1;stroke:#000000;stroke-width:8.18065;stroke-linejoin:round;stroke-miterlimit:4;stroke-dasharray:none;stroke-opacity:1"
       transform="matrix(0.08699097,0,0,0.17177111,281.09092,35.284429)">
      <path
         d="m 385,170 -31,-32 -2,-24 15,-15 19,6 15,16 3,17 -11,32 h -8"
         id="path8"
         style="fill:#98ffb9;fill-opacity:1;stroke:#000000;stroke-width:8.18065;stroke-miterlimit:4;stroke-dasharray:none;stroke-opacity:1" />
    </g>
    <g
       id="voronoi_4"
       inkscape:label="4"
       style="fill:#ffffff;fill-opacity:1;stroke:#000000;stroke-width:8.18065;stroke-linejoin:round;stroke-miterlimit:4;stroke-dasharray:none;stroke-opacity:1"
       transform="matrix(0.08699097,0,0,0.17177111,281.09092,35.284429)">
      <path
         d="m 404,138 -3,-17 15,-32 h 2 l 32,22 -46,27"
         id="path11"
         style="fill:#ffff00;fill-opacity:1;stroke:#000000;stroke-width:8.18065;stroke-miterlimit:4;stroke-dasharray:none;stroke-opacity:1" />
    </g>
    <g
       id="voronoi_5"
       inkscape:label="5"
       style="fill:#98ffb9;fill-opacity:1;stroke:#000000;stroke-width:8.18065;stroke-linejoin:round;stroke-miterlimit:4;stroke-dasharray:none;stroke-opacity:1"
       transform="matrix(0.08699097,0,0,0.17177111,281.09092,35.284429)">
      <path
         d="M 308,139 V 77 l 44,37 2,24 -46,1"
         id="path14"
         style="fill:#98ffb9;fill-opacity:1;stroke:#000000;stroke-width:8.18065;stroke-miterlimit:4;stroke-dasharray:none;stroke-opacity:1" />
    </g>
    <g
       id="voronoi_7"
       inkscape:label="7"
       style="fill:#98ffb9;fill-opacity:1;stroke:#000000;stroke-width:8.18065;stroke-linejoin:round;stroke-miterlimit:4;stroke-dasharray:none;stroke-opacity:1"
       transform="matrix(0.08699097,0,0,0.17177111,281.09092,35.284429)">
      <path
         d="M 352,114 308,77 V 55 l 40,16 19,27 v 1 l -15,15"
         id="path20"
         style="fill:#98ffb9;fill-opacity:1;stroke:#000000;stroke-width:8.18065;stroke-miterlimit:4;stroke-dasharray:none;stroke-opacity:1" />
    </g>
    <g
       id="voronoi_11"
       inkscape:label="11"
       style="fill:#98ffb9;fill-opacity:1;stroke:#000000;stroke-width:8.18065;stroke-linejoin:round;stroke-miterlimit:4;stroke-dasharray:none;stroke-opacity:1"
       transform="matrix(0.08699097,0,0,0.17177111,281.09092,35.284429)">
      <path
         d="m 489,170 1,-44 70,-31 v 75 h -71"
         id="path32"
         style="fill:#98ffb9;fill-opacity:1;stroke:#000000;stroke-width:8.18065;stroke-miterlimit:4;stroke-dasharray:none;stroke-opacity:1" />
    </g>
    <g
       id="voronoi_13"
       inkscape:label="13"
       style="fill:#ffff00;fill-opacity:1;stroke:#000000;stroke-width:8.18065;stroke-linejoin:round;stroke-miterlimit:4;stroke-dasharray:none;stroke-opacity:1"
       transform="matrix(0.08699097,0,0,0.17177111,281.09092,35.284429)">
      <path
         d="m 450,111 -32,-22 27,-17 30,2 3,35 -28,2"
         id="path38"
         style="fill:#ffff00;fill-opacity:1;stroke:#000000;stroke-width:8.18065;stroke-miterlimit:4;stroke-dasharray:none;stroke-opacity:1" />
    </g>
    <g
       id="voronoi_14"
       inkscape:label="14"
       style="fill:#ffff00;fill-opacity:1;stroke:#000000;stroke-width:8.18065;stroke-linejoin:round;stroke-miterlimit:4;stroke-dasharray:none;stroke-opacity:1"
       transform="matrix(0.08699097,0,0,0.17177111,281.09092,35.284429)">
      <path
         d="m 418,89 h -2 l -12,-16 10,-21 31,20 -27,17"
         id="path41"
         style="fill:#ffff00;fill-opacity:1;stroke:#000000;stroke-width:8.18065;stroke-miterlimit:4;stroke-dasharray:none;stroke-opacity:1" />
    </g>
    <g
       id="voronoi_15"
       inkscape:label="15"
       style="fill:#ffffff;fill-opacity:1;stroke:#000000;stroke-width:8.18065;stroke-linejoin:round;stroke-miterlimit:4;stroke-dasharray:none;stroke-opacity:1"
       transform="matrix(0.08699097,0,0,0.17177111,281.09092,35.284429)">
      <path
         d="m 490,126 -12,-17 -3,-35 10,-31 h 75 v 52 l -70,31"
         id="path44"
         style="fill:#98ffb9;fill-opacity:1;stroke:#000000;stroke-width:8.18065;stroke-miterlimit:4;stroke-dasharray:none;stroke-opacity:1" />
    </g>
    <g
       id="voronoi_16"
       inkscape:label="16"
       style="fill:#98ffb9;fill-opacity:1;stroke:#000000;stroke-width:8.18065;stroke-linejoin:round;stroke-miterlimit:4;stroke-dasharray:none;stroke-opacity:1"
       transform="matrix(0.08699097,0,0,0.17177111,281.09092,35.284429)">
      <path
         d="M 348,71 308,55 V 43 h 67 l 2,12 -8,14 -7,1 -14,1"
         id="path47"
         style="fill:#98ffb9;fill-opacity:1;stroke:#000000;stroke-width:8.18065;stroke-miterlimit:4;stroke-dasharray:none;stroke-opacity:1" />
    </g>
    <g
       id="voronoi_18"
       inkscape:label="18"
       style="fill:#ffff00;fill-opacity:1;stroke:#000000;stroke-width:8.18065;stroke-linejoin:round;stroke-miterlimit:4;stroke-dasharray:none;stroke-opacity:1"
       transform="matrix(0.08699097,0,0,0.17177111,281.09092,35.284429)">
      <path
         d="M 402,73 377,55 375,43 h 40 l -1,9 -10,21 h -2"
         id="path53"
         style="fill:#ffff00;fill-opacity:1;stroke:#000000;stroke-width:8.18065;stroke-miterlimit:4;stroke-dasharray:none;stroke-opacity:1" />
    </g>
    <g
       id="voronoi_19"
       inkscape:label="19"
       style="fill:#ffff00;fill-opacity:1;stroke:#000000;stroke-width:8.18065;stroke-linejoin:round;stroke-miterlimit:4;stroke-dasharray:none;stroke-opacity:1"
       transform="matrix(0.08699097,0,0,0.17177111,281.09092,35.284429)">
      <path
         d="m 475,74 -30,-2 -31,-20 1,-9 h 70 l -10,31"
         id="path56"
         style="fill:#ffff00;fill-opacity:1;stroke:#000000;stroke-width:8.18065;stroke-miterlimit:4;stroke-dasharray:none;stroke-opacity:1" />
    </g>
  </g>
  <!-- QGIS extent for clipping, eg in Inkscape -->
  <g
     id="qgisviewbox"
     inkscape:groupmode="layer"
     inkscape:label="qgisviewbox"
     stroke="#ff0000"
     stroke-width="1"
     fill="none"
     transform="translate(-307.52832,-41.967987)" />
</svg>
