<?xml version="1.0" encoding="UTF-8" standalone="no"?>
<!-- Created with Inkscape (http://www.inkscape.org/) -->

<svg
   width="18"
   height="18"
   id="svg2"
   version="1.1"
   inkscape:version="1.1.1 (3bf5ae0d25, 2021-09-20)"
   sodipodi:docname="reload.svg"
   inkscape:export-filename="/home/richard/z/16/rivm_ows-updates/wpswerk/git/JRodos/images/icon.png"
   inkscape:export-xdpi="90"
   inkscape:export-ydpi="90"
   xmlns:inkscape="http://www.inkscape.org/namespaces/inkscape"
   xmlns:sodipodi="http://sodipodi.sourceforge.net/DTD/sodipodi-0.dtd"
   xmlns="http://www.w3.org/2000/svg"
   xmlns:svg="http://www.w3.org/2000/svg"
   xmlns:rdf="http://www.w3.org/1999/02/22-rdf-syntax-ns#"
   xmlns:cc="http://creativecommons.org/ns#"
   xmlns:dc="http://purl.org/dc/elements/1.1/">
  <defs
     id="defs4" />
  <sodipodi:namedview
     id="base"
     pagecolor="#ffffff"
     bordercolor="#666666"
     borderopacity="1.0"
     inkscape:pageopacity="0.0"
     inkscape:pageshadow="2"
     inkscape:zoom="21.34"
     inkscape:cx="6.0684161"
     inkscape:cy="4.1940019"
     inkscape:document-units="px"
     inkscape:current-layer="layer2"
     showgrid="false"
     inkscape:window-width="1397"
     inkscape:window-height="1016"
     inkscape:window-x="2148"
     inkscape:window-y="0"
     inkscape:window-maximized="0"
     inkscape:pagecheckerboard="0"
     fit-margin-top="0"
     fit-margin-left="0"
     fit-margin-right="0"
     fit-margin-bottom="0" />
  <metadata
     id="metadata7">
    <rdf:RDF>
      <cc:Work
         rdf:about="">
        <dc:format>image/svg+xml</dc:format>
        <dc:type
           rdf:resource="http://purl.org/dc/dcmitype/StillImage" />
      </cc:Work>
    </rdf:RDF>
  </metadata>
  <g
     inkscape:label="Layer 1"
     inkscape:groupmode="layer"
     id="layer1"
     transform="translate(0,-1020.3622)"
     style="display:inline">
    <rect
       style="fill:#e27000;fill-opacity:1;stroke:none;stroke-width:0.5625"
       id="rect2985"
       width="18"
       height="18"
       x="0"
       y="1020.3622"
       ry="2.7913063" />
  </g>
  <g
     inkscape:groupmode="layer"
     id="layer2"
     inkscape:label="Layer 2"
     transform="translate(0,-3.2517187e-5)">
    <path
       d="M 8.8536334,2.5578893 C 7.6863341,2.6067076 6.5385582,2.9702475 5.5654662,3.5986523 4.3704229,4.3714344 3.4610392,5.499447 2.9708968,6.814423 2.5259667,8.0089114 2.4365697,9.3135005 2.7150363,10.548498 c 0.1736563,0.768627 0.4757567,1.48532 0.904246,2.142808 0.7860774,1.205914 1.9256329,2.112687 3.2768641,2.606063 1.0039185,0.367694 2.1003168,0.485065 3.1648616,0.340688 1.426242,-0.193195 2.768225,-0.861071 3.776254,-1.88002 0.132554,-0.133991 1.23409,-1.368988 1.240256,-1.390801 0.002,-0.0084 -2.004755,-1.813545 -2.018113,-1.813545 -0.0052,0 -0.205511,0.222279 -0.444931,0.493375 -0.61242,0.693842 -0.673046,0.760318 -0.803545,0.879768 -0.615504,0.559851 -1.319378,0.890153 -2.1403916,1.001293 -0.3000452,0.04051 -0.7460029,0.03739 -1.053241,-0.0073 C 7.518843,12.761937 6.5663021,12.174041 5.9405228,11.270384 5.1739689,10.163145 5.0537452,8.7183337 5.6271194,7.4978781 5.9960106,6.7136705 6.633093,6.0696854 7.420198,5.6864104 7.8178607,5.4932149 8.1682561,5.3883076 8.6327097,5.3218318 c 0.2188686,-0.030122 0.7316171,-0.034277 0.9525409,-0.00519 0.6668814,0.085172 1.2392274,0.2991414 1.7704724,0.6626814 0.276412,0.1890408 0.494253,0.3863911 0.802518,0.7312347 0.157216,0.1744992 0.166464,0.1880021 0.150023,0.2035824 -0.0092,0.00935 -0.294907,0.2638261 -0.634,0.5650449 -0.339091,0.3022575 -0.617559,0.5525807 -0.619614,0.5577742 -0.002,0.00416 0.0041,0.00831 0.01336,0.00831 0.0083,0 0.313403,0.070631 0.67613,0.1558029 0.362726,0.086211 0.874447,0.2077371 1.1375,0.2700582 0.263053,0.062321 0.746003,0.1765766 1.073792,0.254478 0.327789,0.077902 0.853896,0.2025437 1.169355,0.277329 0.315458,0.073747 0.575429,0.1329518 0.577484,0.1308745 0.0031,-0.00207 -0.04829,-0.9971382 -0.113031,-2.2113617 C 15.5245,5.7092655 15.466962,4.6155296 15.459769,4.4929646 15.453669,4.3703997 15.445379,4.2384867 15.442299,4.2000553 l -0.0072,-0.069592 -0.534326,0.4767568 c -0.29388,0.2617487 -0.536383,0.4767567 -0.539466,0.4767567 -0.0031,0.00104 -0.06782,-0.069592 -0.143856,-0.1558029 C 14.018111,4.7006977 13.780746,4.4524519 13.626613,4.310152 12.342173,3.1187795 10.611775,2.483104 8.8536334,2.5578893 Z"
       id="path4"
       style="fill:#0000ff;stroke:#0000ff;stroke-width:0.479887;stroke-miterlimit:4;stroke-dasharray:none;stroke-opacity:1" />
  </g>
</svg>
